# Blender 5.0.0
# www.blender.org
mtllib Untitled.mtl
o Cube
v -4.000000 -4.355332 8.000000
v -4.000000 4.355332 8.000000
v -3.475103 -3.783807 -8.000000
v -3.475103 3.783807 -8.000000
v 4.000000 -4.355332 8.000000
v 4.000000 4.355332 8.000000
v 3.475103 -3.783807 -8.000000
v 3.475103 3.783807 -8.000000
v -4.000000 4.355332 -8.000000
v -4.000000 -4.355332 -8.000000
v 4.000000 -4.355332 -8.000000
v 4.000000 4.355332 -8.000000
v -3.475103 3.783807 -7.641531
v -3.475103 -3.783807 -7.641531
v 3.475103 -3.783807 -7.641531
v 3.475103 3.783807 -7.641531
vn -1.0000 -0.0000 -0.0000
vn 1.0000 -0.0000 -0.0000
vn -0.0000 -0.0000 1.0000
vn -0.0000 1.0000 -0.0000
vn -0.0000 -0.0000 -1.0000
vn -0.0000 -1.0000 -0.0000
s 0
f 2//1 10//1 1//1
f 7//1 16//1 8//1
f 12//2 5//2 11//2
f 6//3 1//3 5//3
f 9//4 6//4 12//4
f 3//5 9//5 4//5
f 7//5 10//5 3//5
f 4//5 12//5 8//5
f 8//5 11//5 7//5
f 3//4 15//4 7//4
f 8//6 13//6 4//6
f 4//2 14//2 3//2
f 2//1 9//1 10//1
f 7//1 15//1 16//1
f 12//2 6//2 5//2
f 6//3 2//3 1//3
f 9//4 2//4 6//4
f 3//5 10//5 9//5
f 7//5 11//5 10//5
f 4//5 9//5 12//5
f 8//5 12//5 11//5
f 3//4 14//4 15//4
f 8//6 16//6 13//6
f 4//2 13//2 14//2
